G04 ================== begin FILE IDENTIFICATION RECORD ==================*
G04 Layout Name:  C:/Users/Vlady/Desktop/Proiect/allegro/PROIECT FINAL TIE.brd*
G04 Film Name:    SILKSCREEN_TOP*
G04 File Format:  Gerber RS274X*
G04 File Origin:  Cadence Allegro 17.2-S025*
G04 Origin Date:  Wed Jun 07 23:24:08 2023*
G04 *
G04 Layer:  USER PART NUMBER/SILKSCREEN_TOP*
G04 Layer:  TOLERANCE/SILKSCREEN_TOP*
G04 Layer:  REF DES/SILKSCREEN_TOP*
G04 Layer:  PACKAGE GEOMETRY/SILKSCREEN_TOP*
G04 Layer:  DEVICE TYPE/SILKSCREEN_TOP*
G04 Layer:  COMPONENT VALUE/SILKSCREEN_TOP*
G04 Layer:  BOARD GEOMETRY/SILKSCREEN_TOP*
G04 *
G04 Offset:    (0.00 0.00)*
G04 Mirror:    No*
G04 Mode:      Positive*
G04 Rotation:  0*
G04 FullContactRelief:  No*
G04 UndefLineWidth:     8.00*
G04 ================== end FILE IDENTIFICATION RECORD ====================*
%FSLAX25Y25*MOIN*%
%IR0*IPPOS*OFA0.00000B0.00000*MIA0B0*SFA1.00000B1.00000*%
%ADD10C,.005*%
%ADD11C,.008*%
%ADD12C,.006*%
%ADD13C,.00787*%
G75*
%LPD*%
G75*
G54D10*
G01X69094Y40000D02*
G03I-19094J0D01*
G01X157165Y47874D02*
Y32126D01*
X202835D01*
Y47874D01*
X157165D01*
G54D11*
G01X4950Y124567D02*
X12450D01*
Y122233D01*
X12075Y121487D01*
X11575Y121020D01*
X10575Y120833D01*
X9575Y121020D01*
X8950Y121580D01*
X8575Y122233D01*
Y124567D01*
G01Y122233D02*
X4950Y120833D01*
G01Y115200D02*
X12450D01*
X10950Y116320D01*
G01X4950D02*
Y114080D01*
G01X24950Y124567D02*
X32450D01*
Y122233D01*
X32075Y121487D01*
X31575Y121020D01*
X30575Y120833D01*
X29575Y121020D01*
X28950Y121580D01*
X28575Y122233D01*
Y124567D01*
G01Y122233D02*
X24950Y120833D01*
G01X31200Y116973D02*
X31950Y116413D01*
X32325Y115760D01*
X32450Y115013D01*
X32200Y114080D01*
X31575Y113427D01*
X30825Y113240D01*
X30075Y113333D01*
X29450Y113707D01*
X28200Y115573D01*
X27325Y116413D01*
X26075Y116973D01*
X24950Y117160D01*
Y113240D01*
G01X38278Y19558D02*
X37898Y19808D01*
X37455Y19975D01*
X36948D01*
X36378Y19725D01*
X35935Y19308D01*
X35618Y18808D01*
X35365Y17975D01*
X35302Y17225D01*
X35428Y16475D01*
X35618Y15975D01*
X35998Y15475D01*
X36442Y15142D01*
X36885Y14975D01*
X37328D01*
X37772Y15142D01*
X38152Y15392D01*
X38468Y15725D01*
G01X40338Y14975D02*
Y19975D01*
X41985Y15808D01*
X43632Y19975D01*
Y14975D01*
G01X45502D02*
X47085Y19975D01*
X48668Y14975D01*
G01X48098Y16725D02*
X46072D01*
G01X51362Y16642D02*
X53008D01*
G01X58045Y14975D02*
Y19975D01*
X55702Y16392D01*
X58868D01*
G01X60992Y15725D02*
X61372Y15308D01*
X61815Y15058D01*
X62385Y14975D01*
X62955Y15142D01*
X63398Y15475D01*
X63715Y16058D01*
X63778Y16725D01*
X63652Y17392D01*
X63335Y17808D01*
X62892Y18142D01*
X62448Y18225D01*
X62005Y18142D01*
X61435Y17808D01*
X61625Y19975D01*
X63335D01*
G01X68245Y14975D02*
Y19975D01*
X65902Y16392D01*
X69068D01*
G01X73345Y14975D02*
Y19975D01*
X71002Y16392D01*
X74168D01*
G01X76418Y14975D02*
Y19975D01*
X77938D01*
X78445Y19725D01*
X78825Y19142D01*
X78952Y18475D01*
X78825Y17808D01*
X78508Y17308D01*
X77938Y17058D01*
X76418D01*
G01X81582Y14975D02*
Y19975D01*
X83988D01*
G01X83102Y17558D02*
X81582D01*
G01X87062Y16642D02*
X88708D01*
G01X91085Y19975D02*
X91972Y14975D01*
X92985Y19975D01*
X93998Y14975D01*
X94885Y19975D01*
G01X35248Y60007D02*
Y65007D01*
X36895Y60840D01*
X38542Y65007D01*
Y60007D01*
G01X41235Y65007D02*
X42755D01*
G01X41995D02*
Y60007D01*
G01X41235D02*
X42755D01*
G01X48488Y64590D02*
X48108Y64840D01*
X47665Y65007D01*
X47158D01*
X46588Y64757D01*
X46145Y64340D01*
X45828Y63840D01*
X45575Y63007D01*
X45512Y62257D01*
X45638Y61507D01*
X45828Y61007D01*
X46208Y60507D01*
X46652Y60174D01*
X47095Y60007D01*
X47538D01*
X47982Y60174D01*
X48362Y60424D01*
X48678Y60757D01*
G01X52195Y60007D02*
Y65007D01*
X51435Y64007D01*
G01Y60007D02*
X52955D01*
G01X54410Y71100D02*
Y63600D01*
G01X52263Y71100D02*
X56557D01*
G01X61910Y63600D02*
Y71100D01*
X60790Y69600D01*
G01Y63600D02*
X63030D01*
G01X39947Y86425D02*
X40507Y86050D01*
X41160Y85800D01*
X41907D01*
X42747Y86175D01*
X43400Y86800D01*
X43867Y87550D01*
X44240Y88800D01*
X44333Y89925D01*
X44147Y91050D01*
X43867Y91800D01*
X43307Y92550D01*
X42653Y93050D01*
X42000Y93300D01*
X41347D01*
X40693Y93050D01*
X40133Y92675D01*
X39667Y92175D01*
G01X34500Y93300D02*
Y85800D01*
X35620Y87300D01*
G01Y93300D02*
X33380D01*
G01X60053Y133575D02*
X59493Y133950D01*
X58840Y134200D01*
X58093D01*
X57253Y133825D01*
X56600Y133200D01*
X56133Y132450D01*
X55760Y131200D01*
X55667Y130075D01*
X55853Y128950D01*
X56133Y128200D01*
X56693Y127450D01*
X57347Y126950D01*
X58000Y126700D01*
X58653D01*
X59307Y126950D01*
X59867Y127325D01*
X60333Y127825D01*
G01X63447Y128200D02*
X64007Y127325D01*
X64753Y126825D01*
X65593Y126700D01*
X66340Y126825D01*
X67087Y127450D01*
X67553Y128200D01*
X67647Y128950D01*
X67460Y129825D01*
X66807Y130450D01*
X66153Y130700D01*
X65313D01*
G01X66153D02*
X66713Y131075D01*
X67180Y131700D01*
X67367Y132450D01*
X67180Y133200D01*
X66713Y133825D01*
X65873Y134200D01*
X65033Y134075D01*
X64193Y133575D01*
G01X44950Y124567D02*
X52450D01*
Y122233D01*
X52075Y121487D01*
X51575Y121020D01*
X50575Y120833D01*
X49575Y121020D01*
X48950Y121580D01*
X48575Y122233D01*
Y124567D01*
G01Y122233D02*
X44950Y120833D01*
G01Y114080D02*
X52450D01*
X47075Y117533D01*
Y112867D01*
G01X105000Y40000D02*
G03I-10000J0D01*
G01X88833Y65493D02*
X92500Y62707D01*
G01X93167Y64100D02*
X88167D01*
G01X88833Y62707D02*
X92500Y65493D01*
G01X90667Y66000D02*
Y62200D01*
G01X88833Y60393D02*
X92500Y57607D01*
G01X93167Y59000D02*
X88167D01*
G01X88833Y57607D02*
X92500Y60393D01*
G01X90667Y60900D02*
Y57100D01*
G01X88833Y55293D02*
X92500Y52507D01*
G01X93167Y53900D02*
X88167D01*
G01X88833Y52507D02*
X92500Y55293D01*
G01X90667Y55800D02*
Y52000D01*
G01X64950Y124567D02*
X72450D01*
Y122233D01*
X72075Y121487D01*
X71575Y121020D01*
X70575Y120833D01*
X69575Y121020D01*
X68950Y121580D01*
X68575Y122233D01*
Y124567D01*
G01Y122233D02*
X64950Y120833D01*
G01X66450Y117253D02*
X65575Y116693D01*
X65075Y115947D01*
X64950Y115107D01*
X65075Y114360D01*
X65700Y113613D01*
X66450Y113147D01*
X67200Y113053D01*
X68075Y113240D01*
X68700Y113893D01*
X68950Y114547D01*
Y115387D01*
G01Y114547D02*
X69325Y113987D01*
X69950Y113520D01*
X70700Y113333D01*
X71450Y113520D01*
X72075Y113987D01*
X72450Y114827D01*
X72325Y115667D01*
X71825Y116507D01*
G01X92833Y65493D02*
X96500Y62707D01*
G01X97167Y64100D02*
X92167D01*
G01X92833Y62707D02*
X96500Y65493D01*
G01X94667Y66000D02*
Y62200D01*
G01X92833Y60393D02*
X96500Y57607D01*
G01X97167Y59000D02*
X92167D01*
G01X92833Y57607D02*
X96500Y60393D01*
G01X94667Y60900D02*
Y57100D01*
G01X92833Y55293D02*
X96500Y52507D01*
G01X97167Y53900D02*
X92167D01*
G01X92833Y52507D02*
X96500Y55293D01*
G01X94667Y55800D02*
Y52000D01*
G01X108583Y61157D02*
X108833Y61537D01*
X109000Y61980D01*
Y62487D01*
X108750Y63057D01*
X108333Y63500D01*
X107833Y63817D01*
X107000Y64070D01*
X106250Y64133D01*
X105500Y64007D01*
X105000Y63817D01*
X104500Y63437D01*
X104167Y62993D01*
X104000Y62550D01*
Y62107D01*
X104167Y61663D01*
X104417Y61283D01*
X104750Y60967D01*
G01X108167Y58653D02*
X108667Y58273D01*
X108917Y57830D01*
X109000Y57323D01*
X108833Y56690D01*
X108417Y56247D01*
X107917Y56120D01*
X107417Y56183D01*
X107000Y56437D01*
X106167Y57703D01*
X105583Y58273D01*
X104750Y58653D01*
X104000Y58780D01*
Y56120D01*
G01X117007Y111133D02*
X119793Y114800D01*
G01X118400Y115467D02*
Y110467D01*
G01X119793Y111133D02*
X117007Y114800D01*
G01X116500Y112967D02*
X120300D01*
G01X122107Y111133D02*
X124893Y114800D01*
G01X123500Y115467D02*
Y110467D01*
G01X124893Y111133D02*
X122107Y114800D01*
G01X121600Y112967D02*
X125400D01*
G01X127207Y111133D02*
X129993Y114800D01*
G01X128600Y115467D02*
Y110467D01*
G01X129993Y111133D02*
X127207Y114800D01*
G01X126700Y112967D02*
X130500D01*
G01X91683Y110400D02*
Y115400D01*
X93203D01*
X93710Y115150D01*
X94090Y114567D01*
X94217Y113900D01*
X94090Y113233D01*
X93773Y112733D01*
X93203Y112483D01*
X91683D01*
G01X98050Y110400D02*
Y115400D01*
X97290Y114400D01*
G01Y110400D02*
X98810D01*
G01X90000Y80000D02*
Y110000D01*
X130000D01*
Y80000D01*
X90000D01*
G01X97033Y116100D02*
Y121100D01*
X98553D01*
X99060Y120850D01*
X99440Y120267D01*
X99567Y119600D01*
X99440Y118933D01*
X99123Y118433D01*
X98553Y118183D01*
X97033D01*
G01X103400Y116100D02*
X102893Y116183D01*
X102450Y116517D01*
X102070Y117017D01*
X101817Y117600D01*
X101690Y118267D01*
Y118933D01*
X101817Y119600D01*
X102070Y120183D01*
X102450Y120683D01*
X102893Y121017D01*
X103400Y121100D01*
X103907Y121017D01*
X104350Y120683D01*
X104730Y120183D01*
X104983Y119600D01*
X105110Y118933D01*
Y118267D01*
X104983Y117600D01*
X104730Y117017D01*
X104350Y116517D01*
X103907Y116183D01*
X103400Y116100D01*
G01X108500Y121100D02*
Y116100D01*
G01X107043Y121100D02*
X109957D01*
G01X111700Y114433D02*
X115500D01*
G01X117433Y116100D02*
Y121100D01*
X118953D01*
X119460Y120850D01*
X119840Y120267D01*
X119967Y119600D01*
X119840Y118933D01*
X119523Y118433D01*
X118953Y118183D01*
X117433D01*
G01X123800Y116100D02*
X123293Y116183D01*
X122850Y116517D01*
X122470Y117017D01*
X122217Y117600D01*
X122090Y118267D01*
Y118933D01*
X122217Y119600D01*
X122470Y120183D01*
X122850Y120683D01*
X123293Y121017D01*
X123800Y121100D01*
X124307Y121017D01*
X124750Y120683D01*
X125130Y120183D01*
X125383Y119600D01*
X125510Y118933D01*
Y118267D01*
X125383Y117600D01*
X125130Y117017D01*
X124750Y116517D01*
X124307Y116183D01*
X123800Y116100D01*
G01X128900Y121100D02*
Y116100D01*
G01X127443Y121100D02*
X130357D01*
G01X132100Y114433D02*
X135900D01*
G01X137833Y116100D02*
Y121100D01*
X139353D01*
X139860Y120850D01*
X140240Y120267D01*
X140367Y119600D01*
X140240Y118933D01*
X139923Y118433D01*
X139353Y118183D01*
X137833D01*
G01X144200Y116100D02*
X143693Y116183D01*
X143250Y116517D01*
X142870Y117017D01*
X142617Y117600D01*
X142490Y118267D01*
Y118933D01*
X142617Y119600D01*
X142870Y120183D01*
X143250Y120683D01*
X143693Y121017D01*
X144200Y121100D01*
X144707Y121017D01*
X145150Y120683D01*
X145530Y120183D01*
X145783Y119600D01*
X145910Y118933D01*
Y118267D01*
X145783Y117600D01*
X145530Y117017D01*
X145150Y116517D01*
X144707Y116183D01*
X144200Y116100D01*
G01X149300Y121100D02*
Y116100D01*
G01X147843Y121100D02*
X150757D01*
G01X125433Y24950D02*
Y32450D01*
X127767D01*
X128513Y32075D01*
X128980Y31575D01*
X129167Y30575D01*
X128980Y29575D01*
X128420Y28950D01*
X127767Y28575D01*
X125433D01*
G01X127767D02*
X129167Y24950D01*
G01X133027Y28075D02*
X133680Y28950D01*
X134240Y29450D01*
X134987Y29700D01*
X135640Y29450D01*
X136107Y28950D01*
X136480Y28200D01*
X136573Y27325D01*
X136480Y26575D01*
X136107Y25825D01*
X135547Y25200D01*
X134893Y24950D01*
X134147Y25200D01*
X133493Y25950D01*
X133120Y27075D01*
X133027Y28325D01*
X133213Y29950D01*
X133493Y30825D01*
X133960Y31700D01*
X134613Y32325D01*
X135267Y32450D01*
X135920Y32200D01*
X136387Y31575D01*
G01X143250Y70000D02*
Y110000D01*
X156750D01*
Y70000D01*
X143250D01*
G01X145000Y110000D02*
Y70000D01*
G01X147750Y107500D02*
G03I-1000J0D01*
G01X142980Y113500D02*
X143620D01*
G01X143300D02*
Y111000D01*
G01X142980D02*
X143620D01*
G01X146087Y113292D02*
X145927Y113417D01*
X145740Y113500D01*
X145527D01*
X145287Y113375D01*
X145100Y113167D01*
X144967Y112917D01*
X144860Y112500D01*
X144833Y112125D01*
X144887Y111750D01*
X144967Y111500D01*
X145127Y111250D01*
X145313Y111083D01*
X145500Y111000D01*
X145687D01*
X145873Y111083D01*
X146033Y111208D01*
X146167Y111375D01*
G01X147700Y111000D02*
Y113500D01*
X147380Y113000D01*
G01Y111000D02*
X148020D01*
G01X157753Y26909D02*
Y31909D01*
X159400Y27742D01*
X161047Y31909D01*
Y26909D01*
G01X163740Y31909D02*
X165260D01*
G01X164500D02*
Y26909D01*
G01X163740D02*
X165260D01*
G01X168143D02*
Y31909D01*
X171057Y26909D01*
Y31909D01*
G01X173940D02*
X175460D01*
G01X174700D02*
Y26909D01*
G01X173940D02*
X175460D01*
G01X178977Y28576D02*
X180623D01*
G01X183570Y27576D02*
X184077Y27159D01*
X184647Y26909D01*
X185153D01*
X185660Y27159D01*
X186040Y27576D01*
X186230Y28159D01*
X186103Y28742D01*
X185787Y29242D01*
X185217Y29576D01*
X184457Y29742D01*
X184013Y30076D01*
X183823Y30659D01*
X183950Y31242D01*
X184267Y31659D01*
X184710Y31909D01*
X185153D01*
X185597Y31742D01*
X185977Y31326D01*
G01X188733Y26909D02*
Y31909D01*
X190253D01*
X190760Y31659D01*
X191140Y31076D01*
X191267Y30409D01*
X191140Y29742D01*
X190823Y29242D01*
X190253Y28992D01*
X188733D01*
G01X193707Y26909D02*
Y31909D01*
X194973D01*
X195480Y31659D01*
X195860Y31326D01*
X196177Y30826D01*
X196430Y30242D01*
X196493Y29409D01*
X196430Y28576D01*
X196177Y27992D01*
X195860Y27492D01*
X195480Y27159D01*
X194973Y26909D01*
X193707D01*
G01X200200Y31909D02*
Y26909D01*
G01X198743Y31909D02*
X201657D01*
G01X204477Y28576D02*
X206123D01*
G01X209070Y27576D02*
X209577Y27159D01*
X210147Y26909D01*
X210653D01*
X211160Y27159D01*
X211540Y27576D01*
X211730Y28159D01*
X211603Y28742D01*
X211287Y29242D01*
X210717Y29576D01*
X209957Y29742D01*
X209513Y30076D01*
X209323Y30659D01*
X209450Y31242D01*
X209767Y31659D01*
X210210Y31909D01*
X210653D01*
X211097Y31742D01*
X211477Y31326D01*
G01X213600Y31909D02*
X214487Y26909D01*
X215500Y31909D01*
X216513Y26909D01*
X217400Y31909D01*
G01X158070Y50667D02*
X158577Y50250D01*
X159147Y50000D01*
X159653D01*
X160160Y50250D01*
X160540Y50667D01*
X160730Y51250D01*
X160603Y51833D01*
X160287Y52333D01*
X159717Y52667D01*
X158957Y52833D01*
X158513Y53167D01*
X158323Y53750D01*
X158450Y54333D01*
X158767Y54750D01*
X159210Y55000D01*
X159653D01*
X160097Y54833D01*
X160477Y54417D01*
G01X164500Y50000D02*
Y55000D01*
X163740Y54000D01*
G01Y50000D02*
X165260D01*
G01X167870Y80500D02*
Y83000D01*
X166883Y81208D01*
X168217D01*
G01X169750Y83000D02*
X169537Y82917D01*
X169377Y82708D01*
X169270Y82458D01*
X169190Y82125D01*
X169163Y81750D01*
X169190Y81375D01*
X169270Y81042D01*
X169377Y80792D01*
X169537Y80583D01*
X169750Y80500D01*
X169963Y80583D01*
X170123Y80792D01*
X170230Y81042D01*
X170310Y81375D01*
X170337Y81750D01*
X170310Y82125D01*
X170230Y82458D01*
X170123Y82708D01*
X169963Y82917D01*
X169750Y83000D01*
G01X171950Y80500D02*
Y83000D01*
X171630Y82500D01*
G01Y80500D02*
X172270D01*
G01X174097D02*
X174150Y81042D01*
X174230Y81500D01*
X174337Y81917D01*
X174470Y82375D01*
X174683Y83000D01*
X173617D01*
G01X166713Y86417D02*
X167887Y88250D01*
G01X167300Y88583D02*
Y86083D01*
G01X167887Y86417D02*
X166713Y88250D01*
G01X166500Y87333D02*
X168100D01*
G01X168913Y86417D02*
X170087Y88250D01*
G01X169500Y88583D02*
Y86083D01*
G01X170087Y86417D02*
X168913Y88250D01*
G01X168700Y87333D02*
X170300D01*
G01X171113Y86417D02*
X172287Y88250D01*
G01X171700Y88583D02*
Y86083D01*
G01X172287Y86417D02*
X171113Y88250D01*
G01X170900Y87333D02*
X172500D01*
G01X166963Y83417D02*
X168137Y85250D01*
G01X167550Y85583D02*
Y83083D01*
G01X168137Y83417D02*
X166963Y85250D01*
G01X166750Y84333D02*
X168350D01*
G01X169163Y83417D02*
X170337Y85250D01*
G01X169750Y85583D02*
Y83083D01*
G01X170337Y83417D02*
X169163Y85250D01*
G01X168950Y84333D02*
X170550D01*
G01X171363Y83417D02*
X172537Y85250D01*
G01X171950Y85583D02*
Y83083D01*
G01X172537Y83417D02*
X171363Y85250D01*
G01X171150Y84333D02*
X172750D01*
G01X167870Y90000D02*
Y92500D01*
X166883Y90708D01*
X168217D01*
G01X169750Y92500D02*
X169537Y92417D01*
X169377Y92208D01*
X169270Y91958D01*
X169190Y91625D01*
X169163Y91250D01*
X169190Y90875D01*
X169270Y90542D01*
X169377Y90292D01*
X169537Y90083D01*
X169750Y90000D01*
X169963Y90083D01*
X170123Y90292D01*
X170230Y90542D01*
X170310Y90875D01*
X170337Y91250D01*
X170310Y91625D01*
X170230Y91958D01*
X170123Y92208D01*
X169963Y92417D01*
X169750Y92500D01*
G01X171950Y90000D02*
Y92500D01*
X171630Y92000D01*
G01Y90000D02*
X172270D01*
G01X174097D02*
X174150Y90542D01*
X174230Y91000D01*
X174337Y91417D01*
X174470Y91875D01*
X174683Y92500D01*
X173617D01*
G01X175550Y89167D02*
X177150D01*
G01X178870Y90000D02*
Y92500D01*
X177883Y90708D01*
X179217D01*
G01X179950Y89167D02*
X181550D01*
G01X182390Y90333D02*
X182603Y90125D01*
X182843Y90000D01*
X183057D01*
X183270Y90125D01*
X183430Y90333D01*
X183510Y90625D01*
X183457Y90917D01*
X183323Y91167D01*
X183083Y91333D01*
X182763Y91417D01*
X182577Y91583D01*
X182497Y91875D01*
X182550Y92167D01*
X182683Y92375D01*
X182870Y92500D01*
X183057D01*
X183243Y92417D01*
X183403Y92208D01*
G01X185150Y90000D02*
X184937Y90042D01*
X184750Y90208D01*
X184590Y90458D01*
X184483Y90750D01*
X184430Y91083D01*
Y91417D01*
X184483Y91750D01*
X184590Y92042D01*
X184750Y92292D01*
X184937Y92458D01*
X185150Y92500D01*
X185363Y92458D01*
X185550Y92292D01*
X185710Y92042D01*
X185817Y91750D01*
X185870Y91417D01*
Y91083D01*
X185817Y90750D01*
X185710Y90458D01*
X185550Y90208D01*
X185363Y90042D01*
X185150Y90000D01*
G01X187030Y92500D02*
X187670D01*
G01X187350D02*
Y90000D01*
G01X187030D02*
X187670D01*
G01X190137Y92292D02*
X189977Y92417D01*
X189790Y92500D01*
X189577D01*
X189337Y92375D01*
X189150Y92167D01*
X189017Y91917D01*
X188910Y91500D01*
X188883Y91125D01*
X188937Y90750D01*
X189017Y90500D01*
X189177Y90250D01*
X189363Y90083D01*
X189550Y90000D01*
X189737D01*
X189923Y90083D01*
X190083Y90208D01*
X190217Y90375D01*
G01X191750Y90000D02*
Y92500D01*
X191430Y92000D01*
G01Y90000D02*
X192070D01*
G01X193443Y91042D02*
X193630Y91333D01*
X193790Y91500D01*
X194003Y91583D01*
X194190Y91500D01*
X194323Y91333D01*
X194430Y91083D01*
X194457Y90792D01*
X194430Y90542D01*
X194323Y90292D01*
X194163Y90083D01*
X193977Y90000D01*
X193763Y90083D01*
X193577Y90333D01*
X193470Y90708D01*
X193443Y91125D01*
X193497Y91667D01*
X193577Y91958D01*
X193710Y92250D01*
X193897Y92458D01*
X194083Y92500D01*
X194270Y92417D01*
X194403Y92208D01*
G01X195350Y89167D02*
X196950D01*
G01X198670Y90000D02*
Y92500D01*
X197683Y90708D01*
X199017D01*
G01X200550Y92500D02*
X200337Y92417D01*
X200177Y92208D01*
X200070Y91958D01*
X199990Y91625D01*
X199963Y91250D01*
X199990Y90875D01*
X200070Y90542D01*
X200177Y90292D01*
X200337Y90083D01*
X200550Y90000D01*
X200763Y90083D01*
X200923Y90292D01*
X201030Y90542D01*
X201110Y90875D01*
X201137Y91250D01*
X201110Y91625D01*
X201030Y91958D01*
X200923Y92208D01*
X200763Y92417D01*
X200550Y92500D01*
G01X202750Y90000D02*
Y92500D01*
X202430Y92000D01*
G01Y90000D02*
X203070D01*
G01X204897D02*
X204950Y90542D01*
X205030Y91000D01*
X205137Y91417D01*
X205270Y91875D01*
X205483Y92500D01*
X204417D01*
G01X193250Y70000D02*
Y110000D01*
X206750D01*
Y70000D01*
X193250D01*
G01X195000Y110000D02*
Y70000D01*
G01X197750Y107500D02*
G03I-1000J0D01*
G01X192980Y113500D02*
X193620D01*
G01X193300D02*
Y111000D01*
G01X192980D02*
X193620D01*
G01X196087Y113292D02*
X195927Y113417D01*
X195740Y113500D01*
X195527D01*
X195287Y113375D01*
X195100Y113167D01*
X194967Y112917D01*
X194860Y112500D01*
X194833Y112125D01*
X194887Y111750D01*
X194967Y111500D01*
X195127Y111250D01*
X195313Y111083D01*
X195500Y111000D01*
X195687D01*
X195873Y111083D01*
X196033Y111208D01*
X196167Y111375D01*
G01X197193Y113083D02*
X197353Y113333D01*
X197540Y113458D01*
X197753Y113500D01*
X198020Y113417D01*
X198207Y113208D01*
X198260Y112958D01*
X198233Y112708D01*
X198127Y112500D01*
X197593Y112083D01*
X197353Y111792D01*
X197193Y111375D01*
X197140Y111000D01*
X198260D01*
G01X214950Y44567D02*
X222450D01*
Y42233D01*
X222075Y41487D01*
X221575Y41020D01*
X220575Y40833D01*
X219575Y41020D01*
X218950Y41580D01*
X218575Y42233D01*
Y44567D01*
G01Y42233D02*
X214950Y40833D01*
G01X216075Y37253D02*
X215450Y36693D01*
X215075Y36040D01*
X214950Y35200D01*
X215200Y34360D01*
X215700Y33707D01*
X216575Y33240D01*
X217575Y33147D01*
X218575Y33333D01*
X219200Y33800D01*
X219700Y34453D01*
X219825Y35107D01*
X219700Y35760D01*
X219200Y36600D01*
X222450Y36320D01*
Y33800D01*
G01X217870Y80500D02*
Y83000D01*
X216883Y81208D01*
X218217D01*
G01X219750Y83000D02*
X219537Y82917D01*
X219377Y82708D01*
X219270Y82458D01*
X219190Y82125D01*
X219163Y81750D01*
X219190Y81375D01*
X219270Y81042D01*
X219377Y80792D01*
X219537Y80583D01*
X219750Y80500D01*
X219963Y80583D01*
X220123Y80792D01*
X220230Y81042D01*
X220310Y81375D01*
X220337Y81750D01*
X220310Y82125D01*
X220230Y82458D01*
X220123Y82708D01*
X219963Y82917D01*
X219750Y83000D01*
G01X221950Y80500D02*
Y83000D01*
X221630Y82500D01*
G01Y80500D02*
X222270D01*
G01X224097D02*
X224150Y81042D01*
X224230Y81500D01*
X224337Y81917D01*
X224470Y82375D01*
X224683Y83000D01*
X223617D01*
G01X216713Y86417D02*
X217887Y88250D01*
G01X217300Y88583D02*
Y86083D01*
G01X217887Y86417D02*
X216713Y88250D01*
G01X216500Y87333D02*
X218100D01*
G01X218913Y86417D02*
X220087Y88250D01*
G01X219500Y88583D02*
Y86083D01*
G01X220087Y86417D02*
X218913Y88250D01*
G01X218700Y87333D02*
X220300D01*
G01X221113Y86417D02*
X222287Y88250D01*
G01X221700Y88583D02*
Y86083D01*
G01X222287Y86417D02*
X221113Y88250D01*
G01X220900Y87333D02*
X222500D01*
G01X216963Y83417D02*
X218137Y85250D01*
G01X217550Y85583D02*
Y83083D01*
G01X218137Y83417D02*
X216963Y85250D01*
G01X216750Y84333D02*
X218350D01*
G01X219163Y83417D02*
X220337Y85250D01*
G01X219750Y85583D02*
Y83083D01*
G01X220337Y83417D02*
X219163Y85250D01*
G01X218950Y84333D02*
X220550D01*
G01X221363Y83417D02*
X222537Y85250D01*
G01X221950Y85583D02*
Y83083D01*
G01X222537Y83417D02*
X221363Y85250D01*
G01X221150Y84333D02*
X222750D01*
G01X217870Y90000D02*
Y92500D01*
X216883Y90708D01*
X218217D01*
G01X219750Y92500D02*
X219537Y92417D01*
X219377Y92208D01*
X219270Y91958D01*
X219190Y91625D01*
X219163Y91250D01*
X219190Y90875D01*
X219270Y90542D01*
X219377Y90292D01*
X219537Y90083D01*
X219750Y90000D01*
X219963Y90083D01*
X220123Y90292D01*
X220230Y90542D01*
X220310Y90875D01*
X220337Y91250D01*
X220310Y91625D01*
X220230Y91958D01*
X220123Y92208D01*
X219963Y92417D01*
X219750Y92500D01*
G01X221950Y90000D02*
Y92500D01*
X221630Y92000D01*
G01Y90000D02*
X222270D01*
G01X224097D02*
X224150Y90542D01*
X224230Y91000D01*
X224337Y91417D01*
X224470Y91875D01*
X224683Y92500D01*
X223617D01*
G01X225550Y89167D02*
X227150D01*
G01X228870Y90000D02*
Y92500D01*
X227883Y90708D01*
X229217D01*
G01X229950Y89167D02*
X231550D01*
G01X232390Y90333D02*
X232603Y90125D01*
X232843Y90000D01*
X233057D01*
X233270Y90125D01*
X233430Y90333D01*
X233510Y90625D01*
X233457Y90917D01*
X233323Y91167D01*
X233083Y91333D01*
X232763Y91417D01*
X232577Y91583D01*
X232497Y91875D01*
X232550Y92167D01*
X232683Y92375D01*
X232870Y92500D01*
X233057D01*
X233243Y92417D01*
X233403Y92208D01*
G01X235150Y90000D02*
X234937Y90042D01*
X234750Y90208D01*
X234590Y90458D01*
X234483Y90750D01*
X234430Y91083D01*
Y91417D01*
X234483Y91750D01*
X234590Y92042D01*
X234750Y92292D01*
X234937Y92458D01*
X235150Y92500D01*
X235363Y92458D01*
X235550Y92292D01*
X235710Y92042D01*
X235817Y91750D01*
X235870Y91417D01*
Y91083D01*
X235817Y90750D01*
X235710Y90458D01*
X235550Y90208D01*
X235363Y90042D01*
X235150Y90000D01*
G01X237030Y92500D02*
X237670D01*
G01X237350D02*
Y90000D01*
G01X237030D02*
X237670D01*
G01X240137Y92292D02*
X239977Y92417D01*
X239790Y92500D01*
X239577D01*
X239337Y92375D01*
X239150Y92167D01*
X239017Y91917D01*
X238910Y91500D01*
X238883Y91125D01*
X238937Y90750D01*
X239017Y90500D01*
X239177Y90250D01*
X239363Y90083D01*
X239550Y90000D01*
X239737D01*
X239923Y90083D01*
X240083Y90208D01*
X240217Y90375D01*
G01X241750Y90000D02*
Y92500D01*
X241430Y92000D01*
G01Y90000D02*
X242070D01*
G01X243443Y91042D02*
X243630Y91333D01*
X243790Y91500D01*
X244003Y91583D01*
X244190Y91500D01*
X244323Y91333D01*
X244430Y91083D01*
X244457Y90792D01*
X244430Y90542D01*
X244323Y90292D01*
X244163Y90083D01*
X243977Y90000D01*
X243763Y90083D01*
X243577Y90333D01*
X243470Y90708D01*
X243443Y91125D01*
X243497Y91667D01*
X243577Y91958D01*
X243710Y92250D01*
X243897Y92458D01*
X244083Y92500D01*
X244270Y92417D01*
X244403Y92208D01*
G01X245350Y89167D02*
X246950D01*
G01X248670Y90000D02*
Y92500D01*
X247683Y90708D01*
X249017D01*
G01X250550Y92500D02*
X250337Y92417D01*
X250177Y92208D01*
X250070Y91958D01*
X249990Y91625D01*
X249963Y91250D01*
X249990Y90875D01*
X250070Y90542D01*
X250177Y90292D01*
X250337Y90083D01*
X250550Y90000D01*
X250763Y90083D01*
X250923Y90292D01*
X251030Y90542D01*
X251110Y90875D01*
X251137Y91250D01*
X251110Y91625D01*
X251030Y91958D01*
X250923Y92208D01*
X250763Y92417D01*
X250550Y92500D01*
G01X252750Y90000D02*
Y92500D01*
X252430Y92000D01*
G01Y90000D02*
X253070D01*
G01X254897D02*
X254950Y90542D01*
X255030Y91000D01*
X255137Y91417D01*
X255270Y91875D01*
X255483Y92500D01*
X254417D01*
G01X212943Y172842D02*
X212713Y172997D01*
X212445Y173100D01*
X212138D01*
X211793Y172945D01*
X211525Y172687D01*
X211333Y172377D01*
X211180Y171860D01*
X211142Y171395D01*
X211218Y170930D01*
X211333Y170620D01*
X211563Y170310D01*
X211832Y170103D01*
X212100Y170000D01*
X212368D01*
X212637Y170103D01*
X212867Y170258D01*
X213058Y170465D01*
G01X215200Y170000D02*
X214893Y170052D01*
X214625Y170258D01*
X214395Y170568D01*
X214242Y170930D01*
X214165Y171343D01*
Y171757D01*
X214242Y172170D01*
X214395Y172532D01*
X214625Y172842D01*
X214893Y173048D01*
X215200Y173100D01*
X215507Y173048D01*
X215775Y172842D01*
X216005Y172532D01*
X216158Y172170D01*
X216235Y171757D01*
Y171343D01*
X216158Y170930D01*
X216005Y170568D01*
X215775Y170258D01*
X215507Y170052D01*
X215200Y170000D01*
G01X217418D02*
Y173100D01*
X219182Y170000D01*
Y173100D01*
G01X220672Y172583D02*
X220902Y172893D01*
X221170Y173048D01*
X221477Y173100D01*
X221860Y172997D01*
X222128Y172738D01*
X222205Y172428D01*
X222167Y172118D01*
X222013Y171860D01*
X221247Y171343D01*
X220902Y170982D01*
X220672Y170465D01*
X220595Y170000D01*
X222205D01*
G01X223350Y168967D02*
X225650D01*
G01X227600Y173100D02*
X227293Y172997D01*
X227063Y172738D01*
X226910Y172428D01*
X226795Y172015D01*
X226757Y171550D01*
X226795Y171085D01*
X226910Y170672D01*
X227063Y170362D01*
X227293Y170103D01*
X227600Y170000D01*
X227907Y170103D01*
X228137Y170362D01*
X228290Y170672D01*
X228405Y171085D01*
X228443Y171550D01*
X228405Y172015D01*
X228290Y172428D01*
X228137Y172738D01*
X227907Y172997D01*
X227600Y173100D01*
G01X229550Y168967D02*
X231850D01*
G01X233033Y170620D02*
X233225Y170310D01*
X233455Y170103D01*
X233723Y170000D01*
X234030Y170103D01*
X234260Y170310D01*
X234490Y170620D01*
X234567Y171033D01*
Y173100D01*
G01X236057D02*
Y170878D01*
X236210Y170413D01*
X236517Y170103D01*
X236900Y170000D01*
X237283Y170103D01*
X237590Y170413D01*
X237743Y170878D01*
Y173100D01*
G01X239003Y170000D02*
Y173100D01*
X240000Y170517D01*
X240997Y173100D01*
Y170000D01*
G01X242333D02*
Y173100D01*
X243253D01*
X243560Y172945D01*
X243790Y172583D01*
X243867Y172170D01*
X243790Y171757D01*
X243598Y171447D01*
X243253Y171292D01*
X242333D01*
G01X246967Y170000D02*
X245433D01*
Y173100D01*
X246967D01*
G01X246353Y171602D02*
X245433D01*
G01X248533Y170000D02*
Y173100D01*
X249492D01*
X249798Y172945D01*
X249990Y172738D01*
X250067Y172325D01*
X249990Y171912D01*
X249760Y171653D01*
X249492Y171498D01*
X248533D01*
G01X249492D02*
X250067Y170000D01*
G01X251672Y172583D02*
X251902Y172893D01*
X252170Y173048D01*
X252477Y173100D01*
X252860Y172997D01*
X253128Y172738D01*
X253205Y172428D01*
X253167Y172118D01*
X253013Y171860D01*
X252247Y171343D01*
X251902Y170982D01*
X251672Y170465D01*
X251595Y170000D01*
X253205D01*
G01X254350Y168967D02*
X256650D01*
G01X259443Y172842D02*
X259213Y172997D01*
X258945Y173100D01*
X258638D01*
X258293Y172945D01*
X258025Y172687D01*
X257833Y172377D01*
X257680Y171860D01*
X257642Y171395D01*
X257718Y170930D01*
X257833Y170620D01*
X258063Y170310D01*
X258332Y170103D01*
X258600Y170000D01*
X258868D01*
X259137Y170103D01*
X259367Y170258D01*
X259558Y170465D01*
G01X261700Y170000D02*
X261393Y170052D01*
X261125Y170258D01*
X260895Y170568D01*
X260742Y170930D01*
X260665Y171343D01*
Y171757D01*
X260742Y172170D01*
X260895Y172532D01*
X261125Y172842D01*
X261393Y173048D01*
X261700Y173100D01*
X262007Y173048D01*
X262275Y172842D01*
X262505Y172532D01*
X262658Y172170D01*
X262735Y171757D01*
Y171343D01*
X262658Y170930D01*
X262505Y170568D01*
X262275Y170258D01*
X262007Y170052D01*
X261700Y170000D01*
G01X263918D02*
Y173100D01*
X265682Y170000D01*
Y173100D01*
G01X267172Y172583D02*
X267402Y172893D01*
X267670Y173048D01*
X267977Y173100D01*
X268360Y172997D01*
X268628Y172738D01*
X268705Y172428D01*
X268667Y172118D01*
X268513Y171860D01*
X267747Y171343D01*
X267402Y170982D01*
X267172Y170465D01*
X267095Y170000D01*
X268705D01*
G01X234883Y166120D02*
X235075Y165810D01*
X235305Y165603D01*
X235573Y165500D01*
X235880Y165603D01*
X236110Y165810D01*
X236340Y166120D01*
X236417Y166533D01*
Y168600D01*
G01X238750Y165500D02*
Y168600D01*
X238290Y167980D01*
G01Y165500D02*
X239210D01*
G01X235000Y155000D02*
Y165000D01*
X255000D01*
Y155000D01*
X235000D01*
G01X246847Y47200D02*
Y54700D01*
X248713D01*
X249460Y54325D01*
X250020Y53825D01*
X250487Y53075D01*
X250860Y52200D01*
X250953Y50950D01*
X250860Y49700D01*
X250487Y48825D01*
X250020Y48075D01*
X249460Y47575D01*
X248713Y47200D01*
X246847D01*
G01X256400D02*
X257053Y47325D01*
X257800Y47700D01*
X258267Y48325D01*
X258453Y49200D01*
X258267Y50075D01*
X257707Y50825D01*
X256867Y51200D01*
X255933D01*
X255373Y51450D01*
X254907Y52075D01*
X254720Y52950D01*
X255000Y53825D01*
X255653Y54450D01*
X256400Y54700D01*
X257147Y54450D01*
X257800Y53825D01*
X258080Y52950D01*
X257893Y52075D01*
X257427Y51450D01*
X256867Y51200D01*
X255933D01*
X255093Y50825D01*
X254533Y50075D01*
X254347Y49200D01*
X254533Y48325D01*
X255000Y47700D01*
X255747Y47325D01*
X256400Y47200D01*
G01X246847Y37200D02*
Y44700D01*
X248713D01*
X249460Y44325D01*
X250020Y43825D01*
X250487Y43075D01*
X250860Y42200D01*
X250953Y40950D01*
X250860Y39700D01*
X250487Y38825D01*
X250020Y38075D01*
X249460Y37575D01*
X248713Y37200D01*
X246847D01*
G01X254813Y38075D02*
X255467Y37450D01*
X256213Y37200D01*
X256960Y37450D01*
X257613Y38200D01*
X258080Y39325D01*
X258267Y40450D01*
Y41825D01*
X258080Y42950D01*
X257613Y43950D01*
X257053Y44450D01*
X256400Y44700D01*
X255653Y44450D01*
X255093Y43950D01*
X254720Y43200D01*
X254533Y42200D01*
X254720Y41325D01*
X255187Y40450D01*
X255747Y39950D01*
X256400Y39825D01*
X257147Y40075D01*
X257707Y40700D01*
X258267Y41825D01*
G01X246847Y27200D02*
Y34700D01*
X248713D01*
X249460Y34325D01*
X250020Y33825D01*
X250487Y33075D01*
X250860Y32200D01*
X250953Y30950D01*
X250860Y29700D01*
X250487Y28825D01*
X250020Y28075D01*
X249460Y27575D01*
X248713Y27200D01*
X246847D01*
G01X256400D02*
Y34700D01*
X255280Y33200D01*
G01Y27200D02*
X257520D01*
G01X263900Y34700D02*
X263153Y34450D01*
X262593Y33825D01*
X262220Y33075D01*
X261940Y32075D01*
X261847Y30950D01*
X261940Y29825D01*
X262220Y28825D01*
X262593Y28075D01*
X263153Y27450D01*
X263900Y27200D01*
X264647Y27450D01*
X265207Y28075D01*
X265580Y28825D01*
X265860Y29825D01*
X265953Y30950D01*
X265860Y32075D01*
X265580Y33075D01*
X265207Y33825D01*
X264647Y34450D01*
X263900Y34700D01*
G01X246847Y67200D02*
Y74700D01*
X248713D01*
X249460Y74325D01*
X250020Y73825D01*
X250487Y73075D01*
X250860Y72200D01*
X250953Y70950D01*
X250860Y69700D01*
X250487Y68825D01*
X250020Y68075D01*
X249460Y67575D01*
X248713Y67200D01*
X246847D01*
G01X254627Y70325D02*
X255280Y71200D01*
X255840Y71700D01*
X256587Y71950D01*
X257240Y71700D01*
X257707Y71200D01*
X258080Y70450D01*
X258173Y69575D01*
X258080Y68825D01*
X257707Y68075D01*
X257147Y67450D01*
X256493Y67200D01*
X255747Y67450D01*
X255093Y68200D01*
X254720Y69325D01*
X254627Y70575D01*
X254813Y72200D01*
X255093Y73075D01*
X255560Y73950D01*
X256213Y74575D01*
X256867Y74700D01*
X257520Y74450D01*
X257987Y73825D01*
G01X246847Y57200D02*
Y64700D01*
X248713D01*
X249460Y64325D01*
X250020Y63825D01*
X250487Y63075D01*
X250860Y62200D01*
X250953Y60950D01*
X250860Y59700D01*
X250487Y58825D01*
X250020Y58075D01*
X249460Y57575D01*
X248713Y57200D01*
X246847D01*
G01X256213D02*
X256400Y58825D01*
X256680Y60200D01*
X257053Y61450D01*
X257520Y62825D01*
X258267Y64700D01*
X254533D01*
G01X246847Y77200D02*
Y84700D01*
X248713D01*
X249460Y84325D01*
X250020Y83825D01*
X250487Y83075D01*
X250860Y82200D01*
X250953Y80950D01*
X250860Y79700D01*
X250487Y78825D01*
X250020Y78075D01*
X249460Y77575D01*
X248713Y77200D01*
X246847D01*
G01X254347Y78325D02*
X254907Y77700D01*
X255560Y77325D01*
X256400Y77200D01*
X257240Y77450D01*
X257893Y77950D01*
X258360Y78825D01*
X258453Y79825D01*
X258267Y80825D01*
X257800Y81450D01*
X257147Y81950D01*
X256493Y82075D01*
X255840Y81950D01*
X255000Y81450D01*
X255280Y84700D01*
X257800D01*
G01X246847Y107200D02*
Y114700D01*
X248713D01*
X249460Y114325D01*
X250020Y113825D01*
X250487Y113075D01*
X250860Y112200D01*
X250953Y110950D01*
X250860Y109700D01*
X250487Y108825D01*
X250020Y108075D01*
X249460Y107575D01*
X248713Y107200D01*
X246847D01*
G01X254627Y113450D02*
X255187Y114200D01*
X255840Y114575D01*
X256587Y114700D01*
X257520Y114450D01*
X258173Y113825D01*
X258360Y113075D01*
X258267Y112325D01*
X257893Y111700D01*
X256027Y110450D01*
X255187Y109575D01*
X254627Y108325D01*
X254440Y107200D01*
X258360D01*
G01X246847Y97200D02*
Y104700D01*
X248713D01*
X249460Y104325D01*
X250020Y103825D01*
X250487Y103075D01*
X250860Y102200D01*
X250953Y100950D01*
X250860Y99700D01*
X250487Y98825D01*
X250020Y98075D01*
X249460Y97575D01*
X248713Y97200D01*
X246847D01*
G01X254347Y98700D02*
X254907Y97825D01*
X255653Y97325D01*
X256493Y97200D01*
X257240Y97325D01*
X257987Y97950D01*
X258453Y98700D01*
X258547Y99450D01*
X258360Y100325D01*
X257707Y100950D01*
X257053Y101200D01*
X256213D01*
G01X257053D02*
X257613Y101575D01*
X258080Y102200D01*
X258267Y102950D01*
X258080Y103700D01*
X257613Y104325D01*
X256773Y104700D01*
X255933Y104575D01*
X255093Y104075D01*
G01X246847Y87200D02*
Y94700D01*
X248713D01*
X249460Y94325D01*
X250020Y93825D01*
X250487Y93075D01*
X250860Y92200D01*
X250953Y90950D01*
X250860Y89700D01*
X250487Y88825D01*
X250020Y88075D01*
X249460Y87575D01*
X248713Y87200D01*
X246847D01*
G01X257520D02*
Y94700D01*
X254067Y89325D01*
X258733D01*
G01X246847Y117200D02*
Y124700D01*
X248713D01*
X249460Y124325D01*
X250020Y123825D01*
X250487Y123075D01*
X250860Y122200D01*
X250953Y120950D01*
X250860Y119700D01*
X250487Y118825D01*
X250020Y118075D01*
X249460Y117575D01*
X248713Y117200D01*
X246847D01*
G01X256400D02*
Y124700D01*
X255280Y123200D01*
G01Y117200D02*
X257520D01*
G01X247157Y165597D02*
X248843Y167870D01*
G01X248000Y168283D02*
Y165183D01*
G01X248843Y165597D02*
X247157Y167870D01*
G01X246850Y166733D02*
X249150D01*
G01X250257Y165597D02*
X251943Y167870D01*
G01X251100Y168283D02*
Y165183D01*
G01X251943Y165597D02*
X250257Y167870D01*
G01X249950Y166733D02*
X252250D01*
G01X253357Y165597D02*
X255043Y167870D01*
G01X254200Y168283D02*
Y165183D01*
G01X255043Y165597D02*
X253357Y167870D01*
G01X253050Y166733D02*
X255350D01*
G01X55080Y72580D02*
X69920D01*
G01X52810Y84010D02*
X52010Y80000D01*
G01D02*
X52810Y75990D01*
G01D02*
X55080Y72580D01*
G01D02*
X55160Y72500D01*
G01X62500Y90490D02*
X58490Y89690D01*
G01D02*
X55080Y87420D01*
G01D02*
X52810Y84010D01*
G01X69920Y72580D02*
X72190Y75990D01*
G01D02*
X72990Y80000D01*
G01D02*
X72190Y84010D01*
G01D02*
X69920Y87420D01*
G01D02*
X66510Y89690D01*
G01D02*
X62500Y90490D01*
G54D12*
G01X22500Y84500D02*
Y75500D01*
G01D02*
X44500D01*
G01Y84500D02*
X22500D01*
G01X26250Y104050D02*
Y124350D01*
G01X13750D02*
Y104050D01*
G01D02*
X26250D01*
G01Y124350D02*
X21100D01*
G01D02*
X20250Y125200D01*
G01D02*
X19400Y124350D01*
G01D02*
X13750D01*
G01X44500Y75500D02*
Y84500D01*
G01X46250Y104050D02*
Y124350D01*
G01X33750D02*
Y104050D01*
G01D02*
X46250D01*
G01X53750Y124350D02*
Y104050D01*
G01D02*
X66250D01*
G01X55500Y144500D02*
Y135500D01*
G01D02*
X77500D01*
G01X46250Y124350D02*
X41100D01*
G01D02*
X40250Y125200D01*
G01D02*
X39400Y124350D01*
G01D02*
X33750D01*
G01X61100D02*
X60250Y125200D01*
G01D02*
X59400Y124350D01*
G01D02*
X53750D01*
G01X77500Y144500D02*
X55500D01*
G01X86250Y104050D02*
Y124350D01*
G01X73750D02*
Y104050D01*
G01D02*
X86250D01*
G01X66250D02*
Y124350D01*
G01X77500Y135500D02*
Y144500D01*
G01X86250Y124350D02*
X81100D01*
G01D02*
X80250Y125200D01*
G01D02*
X79400Y124350D01*
G01D02*
X73750D01*
G01X66250D02*
X61100D01*
G01X145950Y46250D02*
X125650D01*
G01D02*
Y41100D01*
G01D02*
X124800Y40250D01*
G01D02*
X125650Y39400D01*
G01D02*
Y33750D01*
G01D02*
X145950D01*
G01D02*
Y46250D01*
G01X236250Y24050D02*
Y44350D01*
G01D02*
X231100D01*
G01D02*
X230250Y45200D01*
G01D02*
X229400Y44350D01*
G01D02*
X223750D01*
G01D02*
Y24050D01*
G01D02*
X236250D01*
G01X261400Y46000D02*
X246400D01*
G01D02*
Y54000D01*
G01X261400D02*
Y46000D01*
G01Y36000D02*
X246400D01*
G01D02*
Y44000D01*
G01D02*
X261400D01*
G01D02*
Y36000D01*
G01Y76000D02*
X246400D01*
G01D02*
Y84000D01*
G01X261400D02*
Y76000D01*
G01Y66000D02*
X246400D01*
G01D02*
Y74000D01*
G01D02*
X261400D01*
G01D02*
Y66000D01*
G01Y56000D02*
X246400D01*
G01D02*
Y64000D01*
G01D02*
X261400D01*
G01D02*
Y56000D01*
G01X246400Y54000D02*
X261400D01*
G01Y106000D02*
X246400D01*
G01D02*
Y114000D01*
G01X261400D02*
Y106000D01*
G01Y96000D02*
X246400D01*
G01D02*
Y104000D01*
G01D02*
X261400D01*
G01D02*
Y96000D01*
G01X246400Y84000D02*
X261400D01*
G01Y86000D02*
X246400D01*
G01D02*
Y94000D01*
G01D02*
X261400D01*
G01D02*
Y86000D01*
G01Y126000D02*
X246400D01*
G01D02*
Y134000D01*
G01D02*
X261400D01*
G01D02*
Y126000D01*
G01Y116000D02*
X246400D01*
G01D02*
Y124000D01*
G01D02*
X261400D01*
G01D02*
Y116000D01*
G01X246400Y114000D02*
X261400D01*
G54D13*
G01X71823Y33146D02*
G03I-394J0D01*
G01X154803Y40000D02*
G03I-394J0D01*
M02*
